<svg xmlns="http://www.w3.org/2000/svg" viewBox="0 0 468 474">
  <path fill="#000000" d="M238.3,61c-16.1,2.3 -28.8,7.2 -43.9,17.2 -26.7,17.6 -51.9,49.3 -64.9,81.4 -5.8,14.4 -8.1,23.8 -9.6,38.6 -3.2,33.6 6.3,61 24.8,71 5.2,2.9 10.4,3.9 11,2.3 0.1,-0.6 -1.9,-4.1 -4.7,-7.9 -14,-19.3 -15.5,-56.2 -3.4,-89.6 11.8,-32.9 35.7,-64.9 61.7,-82.8 8.9,-6.1 26.1,-14.6 32.7,-16.1 7.3,-1.7 18.1,-1.3 25.1,0.9 24.3,7.5 43.1,37.5 50,80 1.9,11.3 2,15.6 1.6,44.5 -0.2,17.6 -0.8,33 -1.2,34.1 -0.6,1.9 -1.2,2.1 -4.6,1.7 -2.3,-0.4 -5,-0.1 -6.3,0.6 -1.3,0.7 -3.3,1.1 -4.6,0.9 -2.1,-0.3 -2.4,-0.9 -2.6,-5.5 -0.4,-7.8 -4.4,-14.5 -11.6,-19.2 -6.5,-4.4 -11.9,-5.7 -17.4,-4.2 -4.2,1.2 -4.7,1 -8.7,-3.6 -2.4,-2.8 -3.6,-3.3 -7.2,-3.3 -8.2,-0 -11.1,4.5 -16.2,25 -0.6,2.5 -1.5,3.6 -3.1,3.8 -2.7,0.4 -2.7,1.2 -0.1,6.3 2.3,4.6 1.8,6 -1.3,4 -1.6,-1 -2.2,-1 -2.8,-0.1 -2.1,3.5 5,16.2 9.8,17.5 5.2,1.3 11.7,-2.9 13.2,-8.6 1.2,-4.4 3.2,-5.8 5.6,-3.8 2.2,1.8 1.3,5.2 -1.9,6.7 -5.9,2.8 -13.6,16.4 -16.7,29.5 -1.7,7.5 0.1,22.7 4.2,34.7 2,6 2.8,10.2 2.7,14.1 -0.2,3.8 0.3,6.4 1.4,8 1,1.3 1.7,2.7 1.7,3.1 0,1.7 -6.7,0.7 -11.9,-1.7 -11.7,-5.5 -22.6,-21.1 -27.1,-38.8 -7.2,-28.5 -3.5,-78.1 8.2,-111.7 7.4,-21 18.4,-36.4 29.9,-41.8 3.2,-1.5 6.1,-3.3 6.4,-4.1 0.8,-2.1 -2,-4.6 -7.8,-7.1 -7.6,-3.3 -17.8,-2.5 -27,2 -35.8,17.6 -57.5,82.7 -48.1,144 3.5,22.5 11.5,41 23.2,53.2 8.5,8.8 14.9,12.6 27.7,15.9 9.9,2.5 25.1,3.5 32.8,2 4.2,-0.7 7.1,-0.7 10.5,-0 3.9,0.9 5.4,0.8 8.6,-0.5 5.2,-2.2 5.9,-2 5.2,1.2 -0.6,2.6 0.8,5.2 6.6,13.4 1,1.5 1,2.2 -0.2,4 -3.5,5.6 -8,14.5 -8,16.1 0,2.5 4.7,9.3 7.9,11.3 1.4,1 5.1,3.9 8.2,6.6 3,2.6 6.3,4.8 7.2,4.8 1.9,-0 2.3,-1.5 0.6,-2.5 -0.5,-0.4 -0.9,-1.4 -0.7,-2.3 0.2,-1 -0.6,-3.7 -1.9,-6.1 -4.6,-8.7 -1.7,-18.1 5.5,-18.1 1.4,-0 1.6,-0.8 1.3,-4.7 -0.2,-2.9 0.2,-5.9 1.2,-7.8 0.8,-1.6 2.3,-5 3.2,-7.5 0.9,-2.5 2.3,-5.9 3,-7.5 3.2,-7.3 5.5,-16.2 4.9,-19.3 -0.7,-3.5 1.8,-8.5 8.9,-18 3.9,-5.2 4,-5.4 3.4,-11.6l-0.6,-6.4 2.9,-0.5c1.6,-0.4 3.8,-1.7 5,-2.9 2,-2.1 2.1,-2.9 1.5,-9.3 -1.1,-10.4 -1,-12 1.5,-24.3 1.8,-8.7 2.1,-11.8 1.2,-13.5 -0.6,-1.2 -1.2,-3.1 -1.4,-4.1 -0.2,-1.2 -1.7,-2.4 -4.3,-3.2 -8.2,-2.7 -7.7,-2.3 -7.2,-7.3 2.3,-22 3,-43 1.9,-58.3 -2,-29.3 -6.6,-49.4 -15.1,-67.4 -11.8,-24.8 -25.9,-38.4 -46.4,-44.9 -8.9,-2.8 -23.4,-3.9 -33.4,-2.5zM297,242.4c0,0.3 -0.4,0.8 -1,1.1 -0.5,0.3 -1,0.1 -1,-0.4 0,-0.6 0.5,-1.1 1,-1.1 0.6,-0 1,0.2 1,0.4zM291.8,301.5c0.9,0.8 -1.5,3.5 -4.8,5.4l-4,2.2 0,-4c0,-2.2 0.5,-4.2 1.3,-4.4 1,-0.5 6.7,0.1 7.5,0.8z"/>
</svg>
